<svg width="20" height="20" viewBox="0 0 20 20" fill="none" xmlns="http://www.w3.org/2000/svg">
<path d="M1.66669 18.3334H18.3334" stroke="#EA2227"/>
<path d="M18.3334 18.4584H1.66669C1.63654 18.4584 1.60526 18.4461 1.57962 18.4204C1.55397 18.3948 1.54169 18.3635 1.54169 18.3334C1.54169 18.3032 1.55397 18.2719 1.57962 18.2463C1.60526 18.2207 1.63654 18.2084 1.66669 18.2084H18.3334C18.3635 18.2084 18.3948 18.2207 18.4204 18.2463C18.4461 18.2719 18.4584 18.3032 18.4584 18.3334C18.4584 18.3635 18.4461 18.3948 18.4204 18.4204C18.3948 18.4461 18.3635 18.4584 18.3334 18.4584Z" stroke="#EA2227"/>
<path d="M2.625 17.7083V18.2083H3.125H16.875H17.375V17.7083V4.99996C17.375 4.00731 17.1454 3.17574 16.5681 2.59849C15.9909 2.02123 15.1593 1.79163 14.1667 1.79163H5.83333C4.84068 1.79163 4.00912 2.02123 3.43186 2.59849C2.85461 3.17574 2.625 4.00731 2.625 4.99996V17.7083ZM17.5 18.4583H2.5C2.46985 18.4583 2.43857 18.446 2.41293 18.4204C2.38728 18.3947 2.375 18.3634 2.375 18.3333V4.99996C2.375 3.83598 2.70671 2.98786 3.26397 2.4306C3.82123 1.87333 4.66936 1.54163 5.83333 1.54163H14.1667C15.3306 1.54163 16.1788 1.87333 16.736 2.4306C17.2933 2.98786 17.625 3.83598 17.625 4.99996V18.3333C17.625 18.3634 17.6127 18.3947 17.5871 18.4204C17.5614 18.446 17.5301 18.4583 17.5 18.4583Z" stroke="#EA2227"/>
<path d="M8.33331 13.875H5.83331C5.80317 13.875 5.77189 13.8627 5.74624 13.8371C5.7206 13.8114 5.70831 13.7801 5.70831 13.75C5.70831 13.7199 5.7206 13.6886 5.74624 13.6629C5.77189 13.6373 5.80317 13.625 5.83331 13.625H8.33331C8.36346 13.625 8.39474 13.6373 8.42038 13.6629C8.44603 13.6886 8.45831 13.7199 8.45831 13.75C8.45831 13.7801 8.44603 13.8114 8.42038 13.8371C8.39474 13.8627 8.36346 13.875 8.33331 13.875Z" fill="#EA2227" stroke="#EA2227"/>
<path d="M14.1667 13.875H11.6667C11.6365 13.875 11.6053 13.8627 11.5796 13.8371C11.554 13.8114 11.5417 13.7801 11.5417 13.75C11.5417 13.7199 11.554 13.6886 11.5796 13.6629C11.6053 13.6373 11.6365 13.625 11.6667 13.625H14.1667C14.1968 13.625 14.2281 13.6373 14.2538 13.6629C14.2794 13.6886 14.2917 13.7199 14.2917 13.75C14.2917 13.7801 14.2794 13.8114 14.2538 13.8371C14.2281 13.8627 14.1968 13.875 14.1667 13.875Z" fill="#EA2227" stroke="#EA2227"/>
<path d="M8.33331 10.625H5.83331C5.49165 10.625 5.20831 10.3417 5.20831 10C5.20831 9.65833 5.49165 9.375 5.83331 9.375H8.33331C8.67498 9.375 8.95831 9.65833 8.95831 10C8.95831 10.3417 8.67498 10.625 8.33331 10.625Z" fill="#EA2227"/>
<path d="M14.1667 10.625H11.6667C11.325 10.625 11.0417 10.3417 11.0417 10C11.0417 9.65833 11.325 9.375 11.6667 9.375H14.1667C14.5084 9.375 14.7917 9.65833 14.7917 10C14.7917 10.3417 14.5084 10.625 14.1667 10.625Z" fill="#EA2227"/>
<path d="M8.33331 6.875H5.83331C5.49165 6.875 5.20831 6.59167 5.20831 6.25C5.20831 5.90833 5.49165 5.625 5.83331 5.625H8.33331C8.67498 5.625 8.95831 5.90833 8.95831 6.25C8.95831 6.59167 8.67498 6.875 8.33331 6.875Z" fill="#EA2227"/>
<path d="M14.1667 6.875H11.6667C11.325 6.875 11.0417 6.59167 11.0417 6.25C11.0417 5.90833 11.325 5.625 11.6667 5.625H14.1667C14.5084 5.625 14.7917 5.90833 14.7917 6.25C14.7917 6.59167 14.5084 6.875 14.1667 6.875Z" fill="#EA2227"/>
</svg>
