<svg width="48" height="48" viewBox="0 0 48 48" fill="none" xmlns="http://www.w3.org/2000/svg">
<path d="M3.93994 11.9V10.18C3.93994 4.93997 7.83994 2.55997 12.6199 4.89997L21.4999 9.25997C23.4199 10.2 24.9999 12.7 24.9999 14.82V44H8.15994C5.83994 44 3.93994 42.14 3.93994 39.86V20.04" stroke="#EA2227" stroke-width="3" stroke-linecap="round" stroke-linejoin="round"/>
<path d="M43.94 30.1201V37.6801C43.94 42.0001 41.94 44.0001 37.62 44.0001H25V20.8401L25.94 21.0401L34.94 23.0601L39 23.9601C41.64 24.5401 43.8 25.9001 43.92 29.7401C43.94 29.8601 43.94 29.9801 43.94 30.1201Z" stroke="#EA2227" stroke-width="3" stroke-linecap="round" stroke-linejoin="round"/>
<path d="M11 18H17.94" stroke="#EA2227" stroke-width="3" stroke-linecap="round" stroke-linejoin="round"/>
<path d="M11 26H17.94" stroke="#EA2227" stroke-width="3" stroke-linecap="round" stroke-linejoin="round"/>
<path d="M34.9399 23.06V29.5C34.9399 31.98 32.9199 34 30.4399 34C27.9599 34 25.9399 31.98 25.9399 29.5V21.04L34.9399 23.06Z" stroke="#EA2227" stroke-width="3" stroke-linecap="round" stroke-linejoin="round"/>
<path d="M43.9199 29.7401C43.7999 32.1001 41.8399 34.0001 39.4399 34.0001C36.9599 34.0001 34.9399 31.9801 34.9399 29.5001V23.0601L38.9999 23.9601C41.6399 24.5401 43.7999 25.9001 43.9199 29.7401Z" stroke="#EA2227" stroke-width="3" stroke-linecap="round" stroke-linejoin="round"/>
</svg>
