<svg width="225" height="40" viewBox="0 0 225 40" fill="none" xmlns="http://www.w3.org/2000/svg">
<g clip-path="url(#clip0_1_2)">
<path d="M4.88062 16.5519V40H39.4204V16.5519L22.1505 5.61273L4.88062 16.5519ZM36.7924 37.3626H7.52038V18.0044L22.1505 8.73586L36.7807 18.0044L36.7924 37.3626Z" fill="black"/>
<path d="M22.1505 0L0 14.0341L1.41257 16.2633L22.1505 3.12313L42.8885 16.2633L44.3011 14.0341L22.1505 0Z" fill="black"/>
<path d="M22.4931 31.8672C20.8295 31.8694 19.213 31.3145 17.9015 30.291C16.5899 29.2675 15.6588 27.8343 15.2567 26.22C14.8545 24.6058 15.0043 22.9033 15.6824 21.3841C16.3604 19.8649 17.5276 18.6165 18.9978 17.8379C20.468 17.0593 22.1565 16.7954 23.7942 17.0882C25.4319 17.381 26.9243 18.2137 28.0336 19.4535C29.143 20.6933 29.8052 22.2688 29.9148 23.9288C30.0245 25.5888 29.5751 27.2377 28.6385 28.6126L29.9384 29.9126C31.3239 28.0306 31.9467 25.6944 31.682 23.3725C31.4172 21.0506 30.2844 18.9146 28.5107 17.3928C26.7371 15.8711 24.4537 15.0762 22.1185 15.1674C19.7833 15.2587 17.569 16.2293 15.9195 17.8848C14.27 19.5403 13.3073 21.7582 13.2245 24.0937C13.1417 26.4292 13.9449 28.7097 15.4731 30.4778C17.0012 32.2459 19.1413 33.371 21.4642 33.6274C23.787 33.8837 26.121 33.2525 27.9979 31.8601L26.698 30.5602C25.4616 31.4127 23.9949 31.8685 22.4931 31.8672Z" fill="#EA2227"/>
<path d="M22.4931 28.1574C21.6911 28.1589 20.9099 27.9017 20.2657 27.4241C19.6214 26.9464 19.1483 26.2737 18.9166 25.5059C18.685 24.738 18.7071 23.9159 18.9797 23.1617C19.2523 22.4074 19.7608 21.7611 20.4299 21.3188C21.0989 20.8764 21.8927 20.6616 22.6935 20.7062C23.4943 20.7508 24.2594 21.0524 24.8751 21.5662C25.4909 22.0801 25.9246 22.7788 26.1118 23.5587C26.299 24.3386 26.2297 25.1581 25.9142 25.8954L27.2681 27.247C27.954 26.0829 28.1913 24.7085 27.9357 23.3818C27.6801 22.0551 26.949 20.8673 25.8797 20.0414C24.8105 19.2154 23.4765 18.8082 22.1283 18.896C20.78 18.9839 19.5102 19.5608 18.5571 20.5184C17.604 21.4761 17.0333 22.7487 16.9519 24.0974C16.8706 25.4461 17.2843 26.778 18.1154 27.8433C18.9464 28.9086 20.1378 29.6339 21.4657 29.8831C22.7936 30.1324 24.1668 29.8883 25.3276 29.1969L23.9784 27.8453C23.5103 28.0511 23.0045 28.1573 22.4931 28.1574Z" fill="#EA2227"/>
<path d="M34.6548 34.2207L34.0236 33.5707L31.7687 31.2829C31.7526 31.264 31.7316 31.2498 31.708 31.2419C31.6844 31.2341 31.6591 31.2328 31.6349 31.2383C31.1656 31.304 30.7151 31.365 30.2575 31.4331C30.2339 31.4372 30.2096 31.4348 30.1873 31.4261C30.165 31.4174 30.1454 31.4028 30.1308 31.3838L28.7089 29.9619L27.9228 29.1758L27.1274 28.3921L26.8129 28.0777L26.4704 27.7351L26.0269 27.2916L25.2408 26.5149L24.1474 25.4238C24.1382 25.4173 24.1303 25.409 24.1244 25.3994C24.1184 25.3898 24.1145 25.3791 24.1127 25.3679C24.111 25.3568 24.1115 25.3454 24.1142 25.3344C24.1169 25.3235 24.1218 25.3132 24.1286 25.3041C24.3067 24.9716 24.378 24.5922 24.3327 24.2177C24.2855 23.8246 24.1136 23.4569 23.8422 23.1685C23.5708 22.8802 23.2143 22.6863 22.8247 22.6153C22.4351 22.5442 22.0331 22.5999 21.6774 22.7739C21.3217 22.948 21.0312 23.2314 20.8482 23.5826C20.6653 23.9338 20.5996 24.3343 20.6609 24.7255C20.7221 25.1168 20.907 25.4781 21.1885 25.7566C21.47 26.0351 21.8332 26.2162 22.2251 26.2732C22.6169 26.3303 23.0168 26.2604 23.366 26.0738C23.3764 26.0655 23.3883 26.0594 23.4011 26.0559C23.4139 26.0524 23.4272 26.0515 23.4404 26.0532C23.4535 26.055 23.4662 26.0594 23.4776 26.0661C23.489 26.0729 23.4989 26.0819 23.5068 26.0926L24.565 27.1508C24.8278 27.4136 25.0883 27.6764 25.3511 27.9369C25.6139 28.1973 25.8744 28.4625 26.1372 28.7229L26.4516 29.0374C26.7144 29.3002 26.9748 29.563 27.2376 29.8234L28.0237 30.6118L29.4785 32.0643C29.5009 32.0837 29.5177 32.1087 29.5271 32.1367C29.5366 32.1648 29.5385 32.1948 29.5325 32.2238C29.4668 32.6767 29.4058 33.1296 29.3448 33.5824C29.3436 33.6131 29.3536 33.6431 29.3729 33.6669L30.6001 34.9129L32.0901 36.4216L32.3248 36.6563C32.3248 36.6281 32.3248 36.6117 32.3388 36.5976C32.428 35.9406 32.5195 35.2836 32.6063 34.6266C32.6063 34.5797 32.6275 34.5586 32.6791 34.5515C33.078 34.4999 33.4769 34.4412 33.8734 34.3849L34.6876 34.2723L34.6548 34.2207Z" fill="black"/>
<path d="M55.4373 13.7338C59.0352 13.7338 61.9894 14.7912 64.2999 16.9062C66.6104 19.0211 67.7695 21.6804 67.7773 24.8841C67.8061 26.403 67.5027 27.9099 66.8883 29.2993C66.2738 30.6887 65.3632 31.9271 64.2201 32.9278C61.8471 35.0865 58.8663 36.1659 55.2778 36.1659H47.4265V13.7338H55.4373ZM52.3259 31.9376H55.5312C57.6696 31.9376 59.4326 31.2751 60.8201 29.9501C61.5005 29.3108 62.0379 28.5348 62.3971 27.673C62.7562 26.8112 62.9289 25.8831 62.9038 24.9498C62.9038 22.9412 62.2092 21.28 60.8201 19.9659C59.431 18.6519 57.668 17.9949 55.5312 17.9949H52.3259V31.9376Z" fill="black"/>
<path d="M75.0185 28.7957C75.154 29.8427 75.6814 30.7995 76.4944 31.473C77.3573 32.1642 78.4399 32.5222 79.5448 32.482C80.362 32.4901 81.1713 32.3212 81.9171 31.9869C82.4922 31.7566 83.0149 31.4126 83.454 30.9755L83.9045 30.5062L86.6593 33.1671C86.5959 33.2539 86.5044 33.3713 86.3871 33.5191C86.1298 33.807 85.8514 34.0753 85.5541 34.3216C85.1084 34.7105 84.6249 35.054 84.111 35.347C83.4477 35.6998 82.743 35.9686 82.0133 36.1471C81.103 36.388 80.1649 36.5071 79.2233 36.5014C76.661 36.5014 74.5406 35.6896 72.8621 34.0658C71.1836 32.4421 70.3451 30.4085 70.3467 27.965C70.3234 26.8161 70.541 25.6751 70.9855 24.6154C71.4301 23.5558 72.0917 22.601 72.9278 21.8126C74.6485 20.1467 76.7697 19.3129 79.2914 19.3113C80.3713 19.2918 81.4441 19.4894 82.4462 19.8925C83.4482 20.2956 84.3591 20.8959 85.1247 21.6578C85.8914 22.3737 86.5006 23.2414 86.9135 24.2057C87.3264 25.1701 87.5339 26.2098 87.5227 27.2588C87.5235 27.5268 87.5023 27.7944 87.4594 28.0589C87.4328 28.2446 87.3896 28.4276 87.3303 28.6056L87.267 28.7957H75.0185ZM76.5249 23.6053C75.7855 24.1899 75.2849 25.0243 75.117 25.9518H83.034C82.892 25.0477 82.4247 24.2266 81.72 23.6429C81.0199 23.0298 80.1187 22.6957 79.1881 22.7043C78.2224 22.6841 77.28 23.0029 76.5249 23.6053Z" fill="black"/>
<path d="M100.175 27.4535V26.7496C100.175 25.6186 99.8276 24.7426 99.133 24.1216C98.4291 23.5021 97.5257 23.183 96.3947 23.183C95.6661 23.1804 94.9413 23.2888 94.2453 23.5045C93.7171 23.6504 93.2105 23.8658 92.7389 24.145L92.2908 24.4642L90.3995 21.4842C90.6586 21.2656 90.9322 21.0649 91.2184 20.8835C91.5704 20.6473 92.3447 20.3266 93.5414 19.9214C94.7601 19.5115 96.0381 19.3053 97.3239 19.3113C99.6516 19.3113 101.483 19.9738 102.819 21.2988C104.155 22.6238 104.823 24.4618 104.823 26.813V36.1706H101.2L100.848 34.7627C99.5874 35.9172 97.8996 36.4944 95.7846 36.4944C93.8402 36.4944 92.2962 36.0298 91.1527 35.1006C90.602 34.6707 90.16 34.1173 89.8625 33.4851C89.565 32.8529 89.4202 32.1597 89.4398 31.4613C89.4291 30.7448 89.5858 30.0357 89.8974 29.3905C90.2091 28.7452 90.667 28.1816 91.2348 27.7445C92.4315 26.7621 94.0013 26.2701 95.9442 26.2686C97.6336 26.2655 99.0438 26.6604 100.175 27.4535ZM99.4897 32.8832C99.753 32.7044 99.9683 32.4635 100.117 32.1818C100.265 31.9002 100.342 31.5863 100.34 31.268C100.338 30.9497 100.258 30.6367 100.107 30.3565C99.9561 30.0764 99.7384 29.8377 99.4732 29.6616C98.896 29.2345 98.1264 29.021 97.1643 29.021C96.3718 28.9836 95.5891 29.2087 94.9376 29.6616C94.6772 29.8412 94.464 30.0811 94.3163 30.3608C94.1685 30.6405 94.0905 30.9518 94.0889 31.2681C94.0873 31.5844 94.1621 31.8965 94.307 32.1777C94.4519 32.4589 94.6626 32.7009 94.9211 32.8832C95.478 33.3009 96.2258 33.509 97.1643 33.5074C98.1467 33.5074 98.9218 33.2993 99.4897 32.8832Z" fill="black"/>
<path d="M108.667 13.7338H113.378V36.1682H108.667V13.7338Z" fill="black"/>
<path d="M132.704 26.7143H122.928V36.1682H118.027V13.7338H122.931V22.3546H132.706V13.7338H137.577V36.1682H132.704V26.7143Z" fill="black"/>
<path d="M153.277 19.6304H157.916V36.1682H153.789L153.566 33.6364C152.391 35.537 150.575 36.4881 148.118 36.4897C146.301 36.4897 144.811 35.8914 143.645 34.6947C142.48 33.498 141.898 31.8312 141.899 29.6944V19.6304H146.545V28.2208C146.545 29.5442 146.84 30.543 147.428 31.2172C147.715 31.5481 148.073 31.8105 148.475 31.9851C148.877 32.1597 149.313 32.2421 149.751 32.2262C150.223 32.2452 150.694 32.1643 151.133 31.9888C151.573 31.8133 151.97 31.5472 152.299 31.2078C152.951 30.5227 153.277 29.4754 153.277 28.0659V19.6304Z" fill="black"/>
<path d="M166.415 36.1682H161.769V19.6304H165.894L166.129 22.1622C167.304 20.2616 169.12 19.3105 171.577 19.309C173.394 19.309 174.884 19.9073 176.05 21.104C177.215 22.3007 177.797 23.9675 177.796 26.1043V36.1682H173.15V27.5779C173.15 26.2545 172.855 25.2557 172.267 24.5814C171.98 24.2505 171.622 23.9881 171.22 23.8135C170.818 23.6389 170.382 23.5566 169.944 23.5725C169.471 23.5544 169 23.6364 168.561 23.8131C168.122 23.9898 167.725 24.2572 167.396 24.5979C166.744 25.2799 166.418 26.3272 166.418 27.7398L166.415 36.1682Z" fill="black"/>
<path d="M187.247 19.6304H192.374V23.3472H187.247V30.0463C187.247 31.498 187.899 32.2246 189.202 32.2262C189.614 32.2248 190.026 32.1981 190.436 32.1464C190.786 32.1075 191.134 32.0487 191.478 31.9704L191.83 31.8742L192.374 35.72C191.199 36.2316 189.746 36.4881 188.014 36.4897C186.328 36.4897 185.004 36.0353 184.042 35.1264C183.08 34.2175 182.599 32.9199 182.599 31.2336V23.3472H179.548V19.6304H182.599V15.6555H187.247V19.6304Z" fill="black"/>
<path d="M198.815 28.7957C198.95 29.8424 199.477 30.7991 200.289 31.473C201.152 32.1642 202.234 32.5222 203.339 32.482C204.156 32.4901 204.966 32.3212 205.711 31.9869C206.287 31.7559 206.81 31.412 207.251 30.9755L207.699 30.5062L210.454 33.1671C210.39 33.2539 210.299 33.3713 210.181 33.5191C209.924 33.807 209.646 34.0753 209.348 34.3216C208.903 34.7105 208.421 35.054 207.908 35.347C207.243 35.6994 206.538 35.9681 205.808 36.1471C204.898 36.388 203.961 36.5071 203.02 36.5014C200.455 36.5014 198.333 35.6896 196.656 34.0658C194.979 32.4421 194.141 30.4085 194.141 27.965C194.117 26.816 194.334 25.6747 194.779 24.6149C195.223 23.5551 195.885 22.6005 196.722 21.8126C198.443 20.1467 200.563 19.3129 203.083 19.3113C204.163 19.2918 205.236 19.4894 206.238 19.8925C207.24 20.2956 208.151 20.8959 208.917 21.6578C209.685 22.3743 210.296 23.2434 210.71 24.2095C211.124 25.1755 211.331 26.2173 211.319 27.2681C211.32 27.5361 211.299 27.8037 211.256 28.0683C211.229 28.254 211.186 28.437 211.127 28.615L211.064 28.8051L198.815 28.7957ZM200.322 23.6053C199.582 24.1899 199.081 25.0243 198.914 25.9518H206.831C206.675 25.0447 206.204 24.2219 205.5 23.6292C204.796 23.0365 203.905 22.7121 202.985 22.7137C202.02 22.6908 201.078 23.0063 200.322 23.6053Z" fill="black"/>
<path d="M214.358 19.6304H218.492L218.748 22.8357C219.903 20.4892 221.954 19.316 224.903 19.316L224.837 24.0605H223.875C220.628 24.0605 219.004 25.8235 219.004 29.3494V36.1752H214.358V19.6304Z" fill="black"/>
</g>
<defs>
<clipPath id="clip0_1_2">
<rect width="224.903" height="40" fill="white"/>
</clipPath>
</defs>
</svg>
