<svg width="48" height="48" viewBox="0 0 48 48" fill="none" xmlns="http://www.w3.org/2000/svg">
<path d="M46 45.5H2C1.18 45.5 0.5 44.82 0.5 44C0.5 43.18 1.18 42.5 2 42.5H46C46.82 42.5 47.5 43.18 47.5 44C47.5 44.82 46.82 45.5 46 45.5Z" fill="#EA2227"/>
<path d="M39.5605 45.5201C38.7405 45.5201 38.0605 44.8401 38.0605 44.0201V35.1001C38.0605 34.2801 38.7405 33.6001 39.5605 33.6001C40.3805 33.6001 41.0605 34.2801 41.0605 35.1001V44.0201C41.0605 44.8401 40.4005 45.5201 39.5605 45.5201Z" fill="#EA2227"/>
<path d="M39.6002 36.6C36.3402 36.6 33.7002 33.96 33.7002 30.7V26.16C33.7002 22.9 36.3402 20.26 39.6002 20.26C42.8602 20.26 45.5002 22.9 45.5002 26.16V30.7C45.5002 33.96 42.8602 36.6 39.6002 36.6ZM39.6002 23.28C38.0002 23.28 36.7002 24.5801 36.7002 26.1801V30.72C36.7002 32.32 38.0002 33.62 39.6002 33.62C41.2002 33.62 42.5002 32.32 42.5002 30.72V26.1801C42.5002 24.5801 41.2002 23.28 39.6002 23.28Z" fill="#EA2227"/>
<path d="M28.5996 45.5C27.7796 45.5 27.0996 44.82 27.0996 44V12.0601C27.0996 8.88006 25.7596 7.52002 22.6396 7.52002H10.1797C7.03969 7.52002 5.67969 8.88006 5.67969 12.0601V44C5.67969 44.82 4.99969 45.5 4.17969 45.5C3.35969 45.5 2.67969 44.82 2.67969 44V12.0601C2.67969 7.20006 5.33969 4.52002 10.1797 4.52002H22.6396C27.4596 4.52002 30.0996 7.20006 30.0996 12.0601V44C30.0996 44.82 29.4196 45.5 28.5996 45.5Z" fill="#EA2227"/>
<path d="M21.4996 18H11.5996C10.7796 18 10.0996 17.32 10.0996 16.5C10.0996 15.68 10.7796 15 11.5996 15H21.4996C22.3196 15 22.9996 15.68 22.9996 16.5C22.9996 17.32 22.3196 18 21.4996 18Z" fill="#EA2227"/>
<path d="M21.4996 25.5H11.5996C10.7796 25.5 10.0996 24.82 10.0996 24C10.0996 23.18 10.7796 22.5 11.5996 22.5H21.4996C22.3196 22.5 22.9996 23.18 22.9996 24C22.9996 24.82 22.3196 25.5 21.4996 25.5Z" fill="#EA2227"/>
<path d="M16.5 45.5C15.68 45.5 15 44.82 15 44V36.5C15 35.68 15.68 35 16.5 35C17.32 35 18 35.68 18 36.5V44C18 44.82 17.32 45.5 16.5 45.5Z" fill="#EA2227"/>
</svg>
