<svg width="48" height="48" viewBox="0 0 48 48" fill="none" xmlns="http://www.w3.org/2000/svg">
<path d="M35.48 45.5H15.28C14.66 45.5 14.1 45.12 13.88 44.52C13.66 43.92 13.82 43.28 14.3 42.86C15.7 41.62 16.52 39.84 16.52 37.98C16.52 34.4 13.6 31.48 10.02 31.48C8.54002 31.48 7.14002 31.98 5.96002 32.92C5.50002 33.28 4.90004 33.34 4.38004 33.1C3.86004 32.86 3.54004 32.32 3.54004 31.74V23C3.54004 18.02 7.58003 13.98 12.56 13.98H35.52C40.5 13.98 44.54 18.02 44.54 23V25.88C44.54 26.7 43.86 27.38 43.04 27.38H39C38.3 27.38 37.66 27.64 37.2 28.12L37.18 28.14C36.62 28.68 36.36 29.4201 36.42 30.1801C36.54 31.5001 37.8 32.5601 39.24 32.5601H43.04C43.86 32.5601 44.54 33.2401 44.54 34.0601V36.4399C44.5 41.4599 40.46 45.5 35.48 45.5ZM18.36 42.5H35.48C38.8 42.5 41.5 39.8 41.5 36.48V35.6H39.2C36.18 35.6 33.62 33.36 33.38 30.48C33.22 28.84 33.82 27.22 35.02 26.04C36.06 24.98 37.46 24.4 38.96 24.4H41.5V23.02C41.5 19.7 38.8 17 35.48 17H12.52C9.20002 17 6.50003 19.7 6.50003 23.02V29.1801C7.62003 28.7401 8.80003 28.5 10 28.5C15.24 28.5 19.5 32.76 19.5 38C19.5 39.58 19.1 41.14 18.36 42.5Z" fill="#EA2227"/>
<path d="M5 24.5202C4.18 24.5202 3.5 23.8402 3.5 23.0202V15.6802C3.5 12.7002 5.36001 9.9801 8.14001 8.9401L24.02 2.9401C25.66 2.3401 27.5 2.56022 28.92 3.56022C30.34 4.56022 31.2 6.18019 31.2 7.90019V15.5002C31.2 16.3202 30.52 17.0002 29.7 17.0002C28.88 17.0002 28.2 16.3202 28.2 15.5002V7.90019C28.2 7.14019 27.84 6.46018 27.22 6.02018C26.58 5.58018 25.8 5.48015 25.08 5.74015L9.20001 11.7402C7.56001 12.3602 6.5 13.9002 6.5 15.6802V23.0202C6.5 23.8402 5.82 24.5202 5 24.5202Z" fill="#EA2227"/>
<path d="M39.2 35.5999C36.18 35.5999 33.6199 33.3599 33.3799 30.4799C33.2199 28.8199 33.8199 27.1999 35.0199 26.0199C36.0399 24.9799 37.4399 24.3999 38.9399 24.3999H43.0999C45.0799 24.4599 46.5999 26.0198 46.5999 27.9398V32.0599C46.5999 33.9799 45.0799 35.5399 43.1599 35.5999H39.2ZM43.0599 27.3999H38.9599C38.2599 27.3999 37.6199 27.6599 37.1599 28.1399C36.5799 28.6999 36.2999 29.4598 36.3799 30.2198C36.4999 31.5398 37.76 32.5999 39.2 32.5999H43.1199C43.3799 32.5999 43.6199 32.3599 43.6199 32.0599V27.9398C43.6199 27.6398 43.3799 27.4199 43.0599 27.3999Z" fill="#EA2227"/>
<path d="M28 25.5H14C13.18 25.5 12.5 24.82 12.5 24C12.5 23.18 13.18 22.5 14 22.5H28C28.82 22.5 29.5 23.18 29.5 24C29.5 24.82 28.82 25.5 28 25.5Z" fill="#EA2227"/>
<path d="M10 47.5C4.76 47.5 0.5 43.24 0.5 38C0.5 35.08 1.8 32.38 4.06 30.58C5.74 29.24 7.86 28.5 10 28.5C15.24 28.5 19.5 32.76 19.5 38C19.5 40.72 18.32 43.32 16.28 45.12C14.52 46.66 12.3 47.5 10 47.5ZM10 31.5C8.52 31.5 7.12 31.9999 5.94 32.9399C4.4 34.1599 3.5 36.02 3.5 38C3.5 41.58 6.42 44.5 10 44.5C11.56 44.5 13.08 43.92 14.3 42.88C15.7 41.64 16.5 39.88 16.5 38C16.5 34.42 13.58 31.5 10 31.5Z" fill="#EA2227"/>
<path d="M7.99977 41.5C7.49977 41.5 6.99977 41.24 6.71977 40.78C6.29977 40.06 6.51976 39.14 7.23976 38.72L9.01975 37.66V35.5C9.01975 34.68 9.69975 34 10.5198 34C11.3398 34 12.0198 34.68 12.0198 35.5V38.5C12.0198 39.02 11.7398 39.52 11.2998 39.78L8.79975 41.28C8.53975 41.44 8.25977 41.5 7.99977 41.5Z" fill="#EA2227"/>
</svg>
