<svg width="38" height="38" viewBox="0 0 38 38" fill="none" xmlns="http://www.w3.org/2000/svg">
<path d="M19.8387 2.79805C20.2246 2.95391 20.6477 2.93906 21.0484 3.03555C23.7797 3.69609 25.8356 5.25469 27.2309 7.68906C28.0473 9.12148 28.4184 10.6875 28.4258 12.3352C28.4332 13.5969 28.4332 14.8586 28.4258 16.1203C28.4184 17.3375 27.6242 18.1242 26.407 18.1391C26.1621 18.1391 25.9246 18.1539 25.6797 18.1316C25.4422 18.1094 25.3606 18.1984 25.3309 18.4285C25.1898 19.6012 24.8188 20.6996 24.1359 21.6719C23.9949 21.8797 23.8613 22.1023 23.6684 22.2656C23.3863 22.5031 23.416 22.7184 23.5793 23.0078C23.8539 23.4902 24.0914 23.9949 24.3289 24.4996C24.418 24.6852 24.5441 24.7816 24.7371 24.841C25.702 25.1527 26.6742 25.4645 27.6242 25.8207C29.9027 26.6594 31.4762 28.2699 32.5301 30.4148C33.1313 31.6395 33.4356 32.9383 33.4727 34.3039C33.4875 34.8754 33.25 35.1129 32.6785 35.1129C23.5273 35.1129 14.3762 35.1129 5.22501 35.1129C4.68321 35.1129 4.41602 34.868 4.44571 34.3559C4.65352 30.6004 6.32345 27.7578 9.72266 26.0508C10.7691 25.5238 11.9344 25.2641 13.0477 24.893C13.3371 24.7965 13.5301 24.6629 13.6563 24.3734C13.8938 23.8391 14.1684 23.3121 14.443 22.8C14.5246 22.6367 14.5098 22.5477 14.3836 22.4215C14.0125 22.043 13.6859 21.6273 13.4633 21.1523C13.2926 20.7738 13.0699 20.6402 12.6395 20.6402C11.8453 20.6477 11.259 20.2543 10.9176 19.527C10.7469 19.1633 10.7246 18.7773 10.7543 18.384C10.7691 18.1391 10.7172 17.998 10.4723 17.8793C9.85626 17.5602 9.50001 17.0184 9.50001 16.3281C9.49259 14.6582 9.3961 12.9809 9.55196 11.3109C9.76719 8.99531 10.7469 7.02109 12.4242 5.41055C13.9457 3.95586 15.7641 3.11719 17.8496 2.85C17.909 2.84258 17.9832 2.87227 18.0055 2.7832C18.6141 2.79805 19.2301 2.79805 19.8387 2.79805ZM14.6656 20.6551C14.6656 20.707 14.6656 20.7219 14.6656 20.7293C15.7121 22.466 17.6938 23.4234 19.5715 23.1637C21.7758 22.8594 23.3789 21.1598 23.8539 19.2672C24.3066 17.4563 24.4477 15.6008 24.5664 13.7453C24.5813 13.5598 24.5145 13.5152 24.3512 13.493C23.8316 13.4113 23.3121 13.3445 22.8 13.2332C20.8555 12.7953 19.141 11.9121 17.6566 10.5836C17.5527 10.4871 17.4637 10.3758 17.2856 10.3906C16.4914 10.4871 15.7566 10.7469 15.1035 11.2145C14.3613 11.734 13.9012 12.4984 13.3668 13.1961C13.2926 13.2926 13.3223 13.3965 13.3223 13.5004C13.3594 14.3687 13.4336 15.2445 13.5301 16.1055C13.6488 17.1297 13.7676 18.1465 13.9977 19.1559C14.0422 19.3414 14.1016 19.4156 14.302 19.4082C14.7621 19.3934 15.2297 19.3934 15.6899 19.4082C15.8531 19.4156 15.9199 19.3562 15.9941 19.2152C16.2762 18.6363 16.7363 18.2801 17.3746 18.1762C17.8941 18.0871 18.4211 18.1316 18.9481 18.1465C20.0316 18.1687 20.8555 19.0074 20.8481 20.0539C20.8406 21.0855 20.0168 21.902 18.9406 21.9242C18.5621 21.9316 18.1836 21.9242 17.8051 21.9242C16.9738 21.9242 16.3504 21.5754 15.9793 20.8184C15.9274 20.7145 15.8828 20.6551 15.7492 20.6551C15.393 20.6625 15.0367 20.6551 14.6656 20.6551ZM17.8199 33.8512C17.5231 33.3836 17.2856 32.9531 16.9961 32.5523C15.5859 30.6078 14.4207 28.5223 13.5895 26.266C13.5301 26.1027 13.4707 26.0656 13.3 26.125C12.5207 26.3996 11.7191 26.6223 10.9473 26.9117C7.88204 28.0547 6.27891 30.3555 5.75938 33.5098C5.71485 33.777 5.7668 33.8512 6.05626 33.8512C9.86368 33.8363 13.6711 33.8438 17.4711 33.8438C17.575 33.8512 17.6641 33.8512 17.8199 33.8512ZM32.1664 33.8215C32.159 33.3539 32.0699 32.9012 31.9438 32.4633C31.2906 30.1328 29.977 28.3293 27.7727 27.2531C26.741 26.7484 25.6203 26.4961 24.5441 26.1102C24.366 26.0434 24.3512 26.1695 24.3141 26.2734C23.4828 28.5223 22.325 30.593 20.9223 32.5301C20.6254 32.9383 20.3805 33.391 20.0984 33.8363C20.8406 33.8734 31.8918 33.8586 32.1664 33.8215ZM13.3816 11.0957C13.4336 11.0437 13.4781 10.9918 13.5301 10.9398C14.584 9.81172 15.8902 9.22539 17.4191 9.11406C17.7754 9.08438 18.0426 9.1957 18.2949 9.4332C20.0168 11.0883 22.1024 11.9641 24.4551 12.2312C24.6109 12.2461 24.6184 12.2016 24.6332 12.0754C24.7891 9.81914 23.3938 7.68164 21.2711 6.89492C20.3285 6.54609 19.3488 6.56836 18.3766 6.5832C16.9293 6.59805 15.6973 7.13242 14.6953 8.17891C13.916 8.98789 13.4559 9.96016 13.3816 11.0957ZM27.1195 11.6301C27.0973 11.0883 27.0008 10.5836 26.8598 10.0863C25.6945 5.95234 21.6348 3.42148 17.4191 4.19336C13.9977 4.82422 11.2887 7.68164 10.8285 11.1477C10.7617 11.6227 10.7617 11.6227 11.2516 11.6227C11.4 11.6227 11.5484 11.6078 11.6895 11.6227C11.9418 11.6598 12.0086 11.5707 12.0309 11.3109C12.2981 8.56484 13.7082 6.67227 16.291 5.67773C17.4785 5.21758 18.7328 5.25469 19.9649 5.34375C21.8723 5.47734 23.4086 6.33086 24.5813 7.84492C25.3902 8.89141 25.8059 10.0789 25.8801 11.3926C25.8875 11.4965 25.8356 11.6301 26.0359 11.6227C26.3996 11.6227 26.7559 11.6301 27.1195 11.6301ZM18.9481 33.3168C19.6383 32.0773 20.4844 31.0309 21.1746 29.8805C21.2711 29.7172 21.182 29.6578 21.093 29.5688C20.4176 28.8934 19.7348 28.2254 19.0668 27.5352C18.9035 27.3645 18.8293 27.4238 18.7031 27.5574C18.0797 28.2254 17.4563 28.8934 16.818 29.5465C16.677 29.6949 16.6621 29.7914 16.7734 29.9695C17.4637 31.0754 18.2875 32.0922 18.9481 33.3168ZM22.4586 23.5941C21.5754 24.5219 20.7219 25.4348 19.8609 26.3402C19.7867 26.4145 19.7793 26.459 19.8609 26.5406C20.5363 27.216 21.2117 27.8914 21.9094 28.5816C22.4586 27.5352 22.9113 26.4813 23.2973 25.3977C23.3195 25.3309 23.3047 25.2789 23.275 25.2195C23.0004 24.6852 22.7406 24.1508 22.4586 23.5941ZM16.0016 28.5816C16.6473 27.8988 17.2707 27.2383 17.9016 26.5777C17.9981 26.4738 17.9461 26.4219 17.8719 26.3477C17.0703 25.5461 16.2613 24.7445 15.4672 23.9355C15.3262 23.7945 15.2891 23.8836 15.2371 23.9949C15.0516 24.3809 14.8512 24.7668 14.6656 25.1453C14.6211 25.227 14.584 25.3012 14.6211 25.4125C15.0145 26.4887 15.4524 27.5426 16.0016 28.5816ZM27.1566 14.6508C27.1566 14.1684 27.1418 13.6859 27.1641 13.2035C27.1715 12.9734 27.1344 12.8621 26.8672 12.8918C26.6371 12.9215 26.407 12.9141 26.177 12.8918C25.9617 12.877 25.8727 12.9215 25.8652 13.1664C25.8207 14.2871 25.7539 15.4078 25.5981 16.5211C25.5535 16.8105 25.6352 16.9145 25.9246 16.8773C26.0879 16.8551 26.2586 16.8773 26.4293 16.8699C26.9191 16.8625 27.1566 16.6176 27.1641 16.1277C27.1641 15.6379 27.1566 15.1406 27.1566 14.6508ZM11.3852 12.8918C11.2293 12.8918 11.0734 12.8992 10.9102 12.8918C10.7988 12.8844 10.7395 12.9141 10.7395 13.0477C10.7469 14.1164 10.732 15.1852 10.7543 16.2613C10.7617 16.625 11.0215 16.8477 11.3926 16.8699C11.6004 16.8848 11.8156 16.8551 12.0234 16.8773C12.2981 16.907 12.3574 16.818 12.3203 16.5508C12.1793 15.5562 12.1051 14.5469 12.068 13.5449C12.0383 12.8918 12.0383 12.8918 11.3852 12.8918ZM18.332 19.4008C18.1242 19.4008 17.909 19.3859 17.7012 19.4008C17.3227 19.423 17.0481 19.6977 17.0555 20.0391C17.0629 20.373 17.3227 20.6402 17.6863 20.6551C18.102 20.6699 18.525 20.6699 18.9406 20.6551C19.3043 20.6402 19.5641 20.3656 19.5641 20.0316C19.5641 19.6977 19.3117 19.4305 18.9481 19.4008C18.7551 19.3859 18.5473 19.4008 18.332 19.4008ZM17.7234 24.3734C18.0723 24.7297 18.4063 25.0711 18.7402 25.4125C18.7922 25.4645 18.8441 25.5758 18.9406 25.4719C19.2746 25.123 19.6012 24.7668 20.002 24.3438C19.1781 24.5293 18.4508 24.418 17.7234 24.3734ZM12.2758 18.1391C12.0383 18.0723 11.9863 18.1836 12.0086 18.3988C12.0234 18.5324 12.0012 18.6734 12.016 18.807C12.0531 19.1262 12.2906 19.3563 12.5875 19.3859C12.6988 19.4008 12.7582 19.3934 12.7211 19.2449C12.6543 18.9629 12.6098 18.6734 12.5727 18.3766C12.5504 18.191 12.4836 18.0871 12.2758 18.1391Z" fill="#EA2227"/>
<path d="M17.7234 24.3735C18.4507 24.418 19.1781 24.5219 20.0019 24.3512C19.6085 24.7742 19.2746 25.1305 18.9406 25.4793C18.8441 25.5832 18.7921 25.4719 18.7402 25.4199C18.4062 25.0785 18.0722 24.7371 17.7234 24.3735Z" fill="#FDFDFD"/>
</svg>
