<svg width="48" height="48" viewBox="0 0 48 48" fill="none" xmlns="http://www.w3.org/2000/svg">
<path d="M44 45.5H4C3.18 45.5 2.5 44.82 2.5 44C2.5 43.18 3.18 42.5 4 42.5H44C44.82 42.5 45.5 43.18 45.5 44C45.5 44.82 44.82 45.5 44 45.5Z" fill="#EA2227"/>
<path d="M42 45.5H6C5.18 45.5 4.5 44.82 4.5 44V12C4.5 5.96 7.96 2.5 14 2.5H34C40.04 2.5 43.5 5.96 43.5 12V44C43.5 44.82 42.82 45.5 42 45.5ZM7.5 42.5H40.5V12C40.5 7.56 38.44 5.5 34 5.5H14C9.56 5.5 7.5 7.56 7.5 12V42.5Z" fill="#EA2227"/>
<path d="M30 45.5H18C17.18 45.5 16.5 44.82 16.5 44V31.88C16.5 30.02 18.02 28.5 19.88 28.5H28.14C30 28.5 31.52 30.02 31.52 31.88V44C31.5 44.82 30.82 45.5 30 45.5ZM19.5 42.5H28.5V31.88C28.5 31.68 28.34 31.5 28.12 31.5H19.86C19.66 31.5 19.48 31.66 19.48 31.88V42.5H19.5Z" fill="#EA2227"/>
<path d="M24 23.5C23.18 23.5 22.5 22.82 22.5 22V12C22.5 11.18 23.18 10.5 24 10.5C24.82 10.5 25.5 11.18 25.5 12V22C25.5 22.82 24.82 23.5 24 23.5Z" fill="#EA2227"/>
<path d="M29 18.5H19C18.18 18.5 17.5 17.82 17.5 17C17.5 16.18 18.18 15.5 19 15.5H29C29.82 15.5 30.5 16.18 30.5 17C30.5 17.82 29.82 18.5 29 18.5Z" fill="#EA2227"/>
</svg>
