<svg width="20" height="20" viewBox="0 0 20 20" fill="none" xmlns="http://www.w3.org/2000/svg">
<path d="M7.14147 12.85C7.12379 12.85 7.10827 12.8468 7.09494 12.8415C7.08209 12.8363 7.06804 12.8278 7.05336 12.8132C7.03183 12.7916 7.01855 12.7609 7.01855 12.725C7.01855 12.6892 7.03183 12.6585 7.05336 12.6369L12.5117 7.1786C12.5332 7.15707 12.5639 7.1438 12.5998 7.1438C12.6356 7.1438 12.6664 7.15707 12.6879 7.1786C12.7094 7.20013 12.7227 7.23086 12.7227 7.26671C12.7227 7.30256 12.7094 7.3333 12.6879 7.35483L7.22958 12.8132C7.2149 12.8278 7.20085 12.8363 7.188 12.8415C7.17467 12.8468 7.15915 12.85 7.14147 12.85Z" fill="#292D32" stroke="#EA2227"/>
<path d="M7.48332 8.75837C6.85112 8.75837 6.33331 8.24056 6.33331 7.60838C6.33331 6.97619 6.85113 6.45837 7.48332 6.45837C8.1155 6.45837 8.63331 6.97618 8.63331 7.60838C8.63331 8.24057 8.11551 8.75837 7.48332 8.75837ZM7.48332 6.71672C6.99732 6.71672 6.58331 7.10882 6.58331 7.61672C6.58331 8.11791 6.98222 8.51671 7.48332 8.51671C7.98446 8.51671 8.38331 8.11787 8.38331 7.61672C8.38331 7.10887 7.96937 6.71672 7.48332 6.71672Z" stroke="#EA2227"/>
<path d="M12.9334 13.5334C12.3012 13.5334 11.7834 13.0156 11.7834 12.3834C11.7834 11.7512 12.3012 11.2334 12.9334 11.2334C13.5656 11.2334 14.0834 11.7512 14.0834 12.3834C14.0834 13.0156 13.5656 13.5334 12.9334 13.5334ZM12.9334 11.4917C12.4474 11.4917 12.0334 11.8838 12.0334 12.3917C12.0334 12.8928 12.4322 13.2917 12.9334 13.2917C13.4345 13.2917 13.8334 12.8929 13.8334 12.3917C13.8334 11.8905 13.4345 11.4917 12.9334 11.4917Z" stroke="#EA2227"/>
<path d="M10 18.4583C5.3345 18.4583 1.54169 14.6655 1.54169 9.99996C1.54169 5.33444 5.3345 1.54163 10 1.54163C14.6655 1.54163 18.4584 5.33444 18.4584 9.99996C18.4584 14.6655 14.6655 18.4583 10 18.4583ZM10 1.79163C5.47388 1.79163 1.79169 5.47382 1.79169 9.99996C1.79169 14.5261 5.47388 18.2083 10 18.2083C14.5262 18.2083 18.2084 14.5261 18.2084 9.99996C18.2084 5.47382 14.5262 1.79163 10 1.79163Z" fill="#292D32" stroke="#EA2227"/>
</svg>
