<svg width="48" height="48" viewBox="0 0 48 48" fill="none" xmlns="http://www.w3.org/2000/svg">
<path d="M44 45.5H4C3.18 45.5 2.5 44.82 2.5 44C2.5 43.18 3.18 42.5 4 42.5H44C44.82 42.5 45.5 43.18 45.5 44C45.5 44.82 44.82 45.5 44 45.5Z" fill="#EA2227"/>
<path d="M6.02002 45.5201C5.62002 45.5201 5.23996 45.36 4.95996 45.08C4.67996 44.8 4.52002 44.4201 4.52002 44.0201L4.5 14.1401C4.5 12.3201 5.41994 10.6 6.93994 9.58002L14.9399 4.24006C16.7999 3.00006 19.2 3.00006 21.04 4.24006L29.04 9.58002C30.58 10.6 31.48 12.3001 31.48 14.1401L31.5 43.98C31.5 44.8 30.84 45.48 30 45.48L6.02002 45.5201ZM18 6.30012C17.52 6.30012 17.04 6.44004 16.62 6.72004L8.62 12.0601C7.92 12.5201 7.5 13.3001 7.5 14.1401L7.52002 42.5201L28.52 42.48L28.5 14.1401C28.5 13.3001 28.08 12.52 27.4 12.08L19.4 6.74006C18.98 6.44006 18.48 6.30012 18 6.30012Z" fill="#EA2227"/>
<path d="M39.96 45.52C39.14 45.52 38.46 44.84 38.46 44.02V36C38.46 35.18 39.14 34.5 39.96 34.5C40.78 34.5 41.46 35.18 41.46 36V44.02C41.46 44.84 40.8 45.52 39.96 45.52Z" fill="#EA2227"/>
<path d="M40 37.5C36.96 37.5 34.5 35.04 34.5 32V28C34.5 24.96 36.96 22.5 40 22.5C43.04 22.5 45.5 24.96 45.5 28V32C45.5 35.04 43.04 37.5 40 37.5ZM40 25.5C38.62 25.5 37.5 26.62 37.5 28V32C37.5 33.38 38.62 34.5 40 34.5C41.38 34.5 42.5 33.38 42.5 32V28C42.5 26.62 41.38 25.5 40 25.5Z" fill="#EA2227"/>
<path d="M30 29.5H6C5.18 29.5 4.5 28.82 4.5 28C4.5 27.18 5.18 26.5 6 26.5H30C30.82 26.5 31.5 27.18 31.5 28C31.5 28.82 30.82 29.5 30 29.5Z" fill="#EA2227"/>
<path d="M18 45.5C17.18 45.5 16.5 44.82 16.5 44V36.5C16.5 35.68 17.18 35 18 35C18.82 35 19.5 35.68 19.5 36.5V44C19.5 44.82 18.82 45.5 18 45.5Z" fill="#EA2227"/>
<path d="M18 22.5C15.52 22.5 13.5 20.48 13.5 18C13.5 15.52 15.52 13.5 18 13.5C20.48 13.5 22.5 15.52 22.5 18C22.5 20.48 20.48 22.5 18 22.5ZM18 16.5C17.18 16.5 16.5 17.18 16.5 18C16.5 18.82 17.18 19.5 18 19.5C18.82 19.5 19.5 18.82 19.5 18C19.5 17.18 18.82 16.5 18 16.5Z" fill="#EA2227"/>
</svg>
