<svg width="48" height="48" viewBox="0 0 48 48" fill="none" xmlns="http://www.w3.org/2000/svg">
<path opacity="0.4" d="M38.7001 11.3199L26.1201 4.54C24.8001 3.82 23.2 3.82 21.86 4.54L9.28009 11.3199C8.36009 11.8199 7.80005 12.8 7.80005 13.88C7.80005 14.96 8.36009 15.9399 9.28009 16.4399L21.86 23.2199C22.52 23.5799 23.26 23.76 23.98 23.76C24.7 23.76 25.44 23.5799 26.1 23.2199L38.6801 16.4399C39.6001 15.9399 40.16 14.96 40.16 13.88C40.2 12.8 39.6201 11.8199 38.7001 11.3199Z" fill="#EA2227"/>
<path opacity="0.4" d="M19.7999 25.58L8.09991 19.72C7.19991 19.26 6.15993 19.32 5.29993 19.84C4.43993 20.36 3.93994 21.2801 3.93994 22.2801V33.34C3.93994 35.26 4.99991 36.98 6.71991 37.84L18.4199 43.6801C18.8199 43.8801 19.26 43.98 19.7 43.98C20.22 43.98 20.74 43.8401 21.2 43.5401C22.06 43.0201 22.5599 42.1 22.5599 41.1V30.0401C22.5799 28.1601 21.5199 26.44 19.7999 25.58Z" fill="#EA2227"/>
<path opacity="0.4" d="M44.0599 22.3001V31.48C44.0399 31.46 44.0199 31.42 43.9999 31.4C43.9999 31.38 43.98 31.36 43.96 31.34C43.88 31.22 43.7799 31.1 43.6799 31C43.6599 30.98 43.6399 30.9401 43.6199 30.9201C41.9999 29.1201 39.6199 28 36.9999 28C34.4799 28 32.1799 29.04 30.5399 30.72C28.9599 32.34 27.9999 34.56 27.9999 37C27.9999 38.68 28.4799 40.28 29.2999 41.64C29.6399 42.22 30.06 42.74 30.52 43.22L29.58 43.7C29.18 43.9 28.7399 44 28.2999 44C27.7799 44 27.26 43.8601 26.78 43.5601C25.94 43.0401 25.4199 42.12 25.4199 41.12V30.08C25.4199 28.16 26.48 26.44 28.2 25.58L39.9 19.74C40.8 19.28 41.84 19.32 42.7 19.86C43.54 20.38 44.0599 21.3001 44.0599 22.3001Z" fill="#EA2227"/>
<path d="M43.96 31.34C42.32 29.32 39.82 28.04 37 28.04C34.88 28.04 32.92 28.78 31.38 30.02C29.3 31.66 28 34.2 28 37.04C28 38.72 28.48 40.3201 29.3 41.6801C29.84 42.5801 30.52 43.36 31.32 44H31.34C32.88 45.28 34.86 46.04 37 46.04C39.28 46.04 41.34 45.2 42.92 43.8C43.62 43.2 44.22 42.4801 44.7 41.6801C45.52 40.3201 46 38.72 46 37.04C46 34.88 45.24 32.88 43.96 31.34ZM41.52 35.92L36.72 40.36C36.44 40.62 36.06 40.76 35.7 40.76C35.32 40.76 34.94 40.6199 34.64 40.3199L32.42 38.1C31.84 37.52 31.84 36.56 32.42 35.98C33 35.4 33.96 35.4 34.54 35.98L35.74 37.1801L39.48 33.72C40.08 33.16 41.04 33.2 41.6 33.8C42.18 34.42 42.14 35.36 41.52 35.92Z" fill="#EA2227"/>
</svg>
