<svg width="48" height="48" viewBox="0 0 48 48" fill="none" xmlns="http://www.w3.org/2000/svg">
<path d="M39.5 30.82L37.8 29.12C38.68 27.78 39.2 26.2 39.2 24.48C39.2 19.8 35.4 16 30.72 16C26.04 16 22.24 19.8 22.24 24.48C22.24 29.16 26.04 32.96 30.72 32.96C32.44 32.96 34.04 32.44 35.36 31.56L37.0601 33.26C37.4001 33.6 37.84 33.76 38.28 33.76C38.72 33.76 39.16 33.6 39.5 33.26C40.16 32.58 40.16 31.48 39.5 30.82Z" fill="#EA2227"/>
<path opacity="0.4" d="M10.8199 4H37.16C39.36 4 41.16 5.81998 41.16 8.03998V12.48C41.16 14.1 40.16 16.12 39.16 17.12L30.58 24.8C29.38 25.82 28.58 27.84 28.58 29.44V38.12C28.58 39.34 27.78 40.94 26.78 41.56L23.98 43.38C21.38 45 17.8 43.18 17.8 39.94V29.24C17.8 27.82 17 26 16.2 25L8.62 16.92C7.62 15.9 6.81995 14.1 6.81995 12.88V8.23999C6.83995 5.81999 8.63995 4 10.8199 4Z" fill="#EA2227"/>
</svg>
