<svg width="48" height="48" viewBox="0 0 48 48" fill="none" xmlns="http://www.w3.org/2000/svg">
<path d="M13.4 37.5H8.30005C4.62005 37.5 2.5 35.38 2.5 31.7V8.30005C2.5 4.62005 4.62005 2.5 8.30005 2.5H16.9C20.58 2.5 22.7 4.62005 22.7 8.30005V12C22.7 12.82 22.02 13.5 21.2 13.5C20.38 13.5 19.7 12.82 19.7 12V8.30005C19.7 6.26005 18.94 5.5 16.9 5.5H8.30005C6.26005 5.5 5.5 6.26005 5.5 8.30005V31.7C5.5 33.74 6.26005 34.5 8.30005 34.5H13.4C14.22 34.5 14.9 35.18 14.9 36C14.9 36.82 14.22 37.5 13.4 37.5Z" fill="#EA2227"/>
<path d="M29.9204 45.5H18.2404C14.2204 45.5 11.9004 43.18 11.9004 39.16V16.84C11.9004 12.82 14.2204 10.5 18.2404 10.5H29.9204C33.9404 10.5 36.2404 12.82 36.2404 16.84V39.16C36.2404 43.18 33.9404 45.5 29.9204 45.5ZM18.2404 13.5C15.8404 13.5 14.9004 14.44 14.9004 16.84V39.16C14.9004 41.56 15.8404 42.5 18.2404 42.5H29.9204C32.3004 42.5 33.2404 41.56 33.2404 39.16V16.84C33.2404 14.44 32.3004 13.5 29.9204 13.5H18.2404Z" fill="#EA2227"/>
<path d="M39.6997 37.5H34.7397C33.9197 37.5 33.2397 36.82 33.2397 36C33.2397 35.18 33.9197 34.5 34.7397 34.5H39.6997C41.7397 34.5 42.4998 33.74 42.4998 31.7V8.30005C42.4998 6.26005 41.7397 5.5 39.6997 5.5H31.0997C29.0597 5.5 28.2998 6.26005 28.2998 8.30005V12C28.2998 12.82 27.6198 13.5 26.7998 13.5C25.9798 13.5 25.2998 12.82 25.2998 12V8.30005C25.2998 4.62005 27.4197 2.5 31.0997 2.5H39.6997C43.3797 2.5 45.4998 4.62005 45.4998 8.30005V31.7C45.4998 35.38 43.3797 37.5 39.6997 37.5Z" fill="#EA2227"/>
<path d="M28 23.5H20C19.18 23.5 18.5 22.82 18.5 22C18.5 21.18 19.18 20.5 20 20.5H28C28.82 20.5 29.5 21.18 29.5 22C29.5 22.82 28.82 23.5 28 23.5Z" fill="#EA2227"/>
<path d="M28 29.5H20C19.18 29.5 18.5 28.82 18.5 28C18.5 27.18 19.18 26.5 20 26.5H28C28.82 26.5 29.5 27.18 29.5 28C29.5 28.82 28.82 29.5 28 29.5Z" fill="#EA2227"/>
<path d="M24 45.5C23.18 45.5 22.5 44.82 22.5 44V38C22.5 37.18 23.18 36.5 24 36.5C24.82 36.5 25.5 37.18 25.5 38V44C25.5 44.82 24.82 45.5 24 45.5Z" fill="#EA2227"/>
</svg>
